<svg xmlns="http://www.w3.org/2000/svg" width="283" height="283" fill="none"><rect width="283" height="283" fill="#fff" rx="141.5"/><path fill="#020816" d="m196.384 110.187 10.107-37.324c.664-2.452-1.184-4.863-3.723-4.863H64.054a4.937 4.937 0 0 0-4.764 3.648l-8.044 29.756c-1.2 4.434 2.14 8.792 6.73 8.792l89.421-.006.33.003c3.891 0 6.72 3.695 5.704 7.452l-3.019 11.169h-9.004l-4.358 13.559h50.661l8.673-32.186Z"/><path stroke="#CAD7FA" stroke-opacity=".32" stroke-width=".312" d="m196.234 110.146-8.643 32.071h-50.328l4.259-13.247h9.009l.031-.115 3.019-11.169c1.043-3.856-1.86-7.648-5.853-7.649h-.001l-.328-.003h-.002l-89.422.006c-4.486 0-7.751-4.261-6.579-8.595l8.044-29.756a4.782 4.782 0 0 1 4.614-3.533h138.714a3.7 3.7 0 0 1 3.573 4.667l-10.107 37.323Z"/><path fill="url(#a)" d="M84.822 128.827c.178-.014.358-.022.539-.022l106.011.006-.005.016h31.163c2.539 0 4.386 2.411 3.723 4.863l-10.107 37.324-8.674 32.183h-.01l-6.588 24.36a5.781 5.781 0 0 1-5.58 4.271h-64.31c-4.418 0-7.63-4.196-6.477-8.458l7.324-27.093a8.998 8.998 0 0 1 8.686-6.648l29.659.003 3.017-11.163c1.011-3.742-1.792-7.423-5.66-7.452h-.045l-89.751.006c-.175 0-.347-.006-.518-.018h-1.893c-3.244 0-5.602-3.079-4.755-6.21l.19-.704a7.02 7.02 0 0 1 .246-1.86l8.045-29.756a4.937 4.937 0 0 1 4.763-3.648h1.007Z"/><path stroke="#CAD7FA" stroke-opacity=".32" stroke-width=".312" d="m84.822 128.983.012-.001c.174-.014.35-.021.527-.021l105.807.006-.004.016h31.366c2.436 0 4.209 2.314 3.572 4.667l-10.106 37.323-8.643 32.068h-.01l-.031.115-6.589 24.36a5.625 5.625 0 0 1-5.429 4.157h-64.31c-4.315 0-7.453-4.1-6.327-8.263l7.325-27.092-.151-.041.151.041a8.84 8.84 0 0 1 8.535-6.533l29.659.002h.119l.031-.115 3.017-11.162c1.038-3.841-1.839-7.619-5.809-7.649h-.046l-89.751.006c-.17 0-.34-.006-.507-.018h-1.904c-3.141 0-5.425-2.981-4.604-6.013l.19-.705.005-.02v-.021a6.858 6.858 0 0 1 .24-1.818l8.045-29.756a4.781 4.781 0 0 1 4.613-3.533h1.007Z"/><defs><linearGradient id="a" x1="70.398" x2="226.389" y1="180.317" y2="180.317" gradientUnits="userSpaceOnUse"><stop stop-color="#5EBCFF"/><stop offset="1" stop-color="#2E51FF"/></linearGradient></defs></svg>