<svg xmlns="http://www.w3.org/2000/svg" width="42" height="42" fill="none"><path fill="#000" d="M6.417 21a14.578 14.578 0 0 0 8.22 13.125L7.679 15.062A14.525 14.525 0 0 0 6.417 21Zm14.84 1.276L16.88 34.989a14.59 14.59 0 0 0 8.962-.232 1.757 1.757 0 0 1-.105-.201l-4.48-12.28Zm9.588-2.013a7.7 7.7 0 0 0-1.202-4.021 6.826 6.826 0 0 1-1.433-3.42 2.525 2.525 0 0 1 2.45-2.59c.064.003.127.007.187.014A14.578 14.578 0 0 0 8.815 12.99c.343.01.665.018.94.018 1.524 0 3.884-.186 3.884-.186a.603.603 0 0 1 .095 1.203s-.791.09-1.67.138l5.312 15.795 3.192-9.572-2.274-6.223a27.05 27.05 0 0 1-1.529-.14.603.603 0 0 1 .093-1.2s2.408.185 3.841.185c1.524 0 3.887-.186 3.887-.186a.602.602 0 1 1 .093 1.203s-.791.09-1.668.138l5.269 15.676 1.505-4.768a16.78 16.78 0 0 0 1.06-4.808Zm3.05-4.758a13.825 13.825 0 0 1-1.109 5.224l-4.454 12.878a14.585 14.585 0 0 0 5.466-19.6c.065.497.098.996.098 1.498ZM21 3.5C11.335 3.5 3.5 11.335 3.5 21S11.335 38.5 21 38.5 38.5 30.665 38.5 21 30.665 3.5 21 3.5Zm6.403 32.658a16.432 16.432 0 0 1-15.6-1.517 16.503 16.503 0 0 1-5.962-7.238 16.433 16.433 0 0 1 1.518-15.6 16.503 16.503 0 0 1 7.238-5.96 16.433 16.433 0 0 1 15.6 1.516 16.502 16.502 0 0 1 5.961 7.238 16.432 16.432 0 0 1-1.517 15.6 16.503 16.503 0 0 1-7.238 5.961Z"/></svg>