<svg xmlns="http://www.w3.org/2000/svg" width="761" height="165" fill="none"><path fill="#020816" d="m145.384 42.187 10.107-37.324C156.155 2.411 154.307 0 151.768 0H13.054A4.937 4.937 0 0 0 8.29 3.648L.246 33.404c-1.2 4.434 2.14 8.792 6.73 8.792l89.421-.006.33.003c3.891 0 6.72 3.695 5.704 7.452l-3.019 11.17h-9.004L86.05 74.373h50.661l8.673-32.186Z"/><path stroke="#CAD7FA" stroke-opacity=".32" stroke-width=".312" d="m145.234 42.146-8.643 32.071H86.263l4.259-13.247h9.01l.03-.115 3.019-11.169c1.043-3.856-1.86-7.648-5.853-7.649h-.001l-.328-.002h-.002l-89.422.006c-4.486 0-7.751-4.262-6.579-8.596L8.44 3.689A4.782 4.782 0 0 1 13.054.156h138.714a3.701 3.701 0 0 1 3.573 4.667l-10.107 37.323Z"/><path fill="url(#a)" d="M33.822 60.827c.178-.014.357-.022.539-.022l106.011.006-.005.016h31.163c2.539 0 4.386 2.411 3.723 4.863l-10.107 37.324-8.674 32.183h-.01l-6.588 24.36a5.782 5.782 0 0 1-5.58 4.271h-64.31c-4.418 0-7.63-4.196-6.477-8.458l7.324-27.093a8.997 8.997 0 0 1 8.686-6.648l29.659.003 3.017-11.163c1.011-3.742-1.792-7.423-5.66-7.452h-.045l-89.751.006c-.175 0-.347-.006-.518-.018h-1.893c-3.244 0-5.602-3.078-4.755-6.21l.19-.704a7.012 7.012 0 0 1 .247-1.86l8.044-29.756a4.937 4.937 0 0 1 4.763-3.648h1.007Z"/><path stroke="#CAD7FA" stroke-opacity=".32" stroke-width=".312" d="M33.822 60.983h.012a6.14 6.14 0 0 1 .527-.022l105.807.006-.004.016h31.366c2.436 0 4.209 2.314 3.572 4.667l-10.106 37.323-8.643 32.068h-.01l-.031.115-6.589 24.36a5.626 5.626 0 0 1-5.429 4.157h-64.31c-4.315 0-7.453-4.1-6.327-8.263l7.325-27.092-.15-.041.15.041a8.841 8.841 0 0 1 8.535-6.533l29.658.002h.12l.031-.115 3.017-11.162c1.038-3.841-1.839-7.619-5.809-7.649h-.046l-89.751.006c-.17 0-.34-.006-.507-.018h-1.904c-3.141 0-5.425-2.981-4.604-6.013l.19-.705.006-.02v-.02a6.856 6.856 0 0 1 .24-1.819l8.044-29.756a4.781 4.781 0 0 1 4.613-3.533h1.007Z"/><path fill="#020816" d="M184.626 131.414v-93.52h37.408c6.668 0 12.058 1.343 16.171 4.027 4.113 2.641 7.122 5.975 9.027 10.002 1.905 4.026 2.858 8.096 2.858 12.21 0 5.238-1.191 9.59-3.572 13.053-2.338 3.464-5.564 5.78-9.677 6.949v-3.247c5.845 1.212 10.218 3.918 13.119 8.118 2.944 4.2 4.416 8.897 4.416 14.093 0 5.585-1.039 10.499-3.117 14.742-2.035 4.243-5.152 7.577-9.352 10.001-4.2 2.382-9.482 3.572-15.846 3.572h-41.435Zm17.925-16.625h21.691c2.381 0 4.503-.498 6.365-1.494 1.861-1.039 3.312-2.468 4.351-4.286 1.082-1.862 1.624-4.049 1.624-6.56 0-2.208-.455-4.178-1.364-5.91-.91-1.732-2.295-3.095-4.157-4.091-1.818-1.04-4.091-1.559-6.819-1.559h-21.691v23.9Zm0-40.396h19.223c1.992 0 3.767-.346 5.326-1.039a8.278 8.278 0 0 0 3.701-3.182c.91-1.472 1.364-3.355 1.364-5.65 0-2.858-.887-5.26-2.662-7.209-1.776-1.948-4.352-2.922-7.729-2.922h-19.223v20.002Zm67.375 57.021V35.947h17.665v95.467h-17.665Zm69.997 1.949c-7.058 0-13.249-1.581-18.574-4.741-5.326-3.161-9.482-7.512-12.47-13.054-2.944-5.585-4.416-11.993-4.416-19.224 0-7.317 1.516-13.746 4.546-19.288 3.031-5.585 7.209-9.936 12.534-13.054 5.326-3.117 11.452-4.676 18.38-4.676 7.057 0 13.248 1.58 18.574 4.741 5.368 3.16 9.546 7.534 12.534 13.119 2.987 5.542 4.481 11.928 4.481 19.158 0 7.274-1.515 13.704-4.546 19.289-2.988 5.542-7.166 9.893-12.534 13.054-5.326 3.117-11.495 4.676-18.509 4.676Zm0-16.496c5.671 0 9.893-1.905 12.664-5.715 2.814-3.854 4.221-8.789 4.221-14.808 0-6.234-1.429-11.213-4.286-14.937-2.814-3.723-7.014-5.585-12.599-5.585-3.854 0-7.014.866-9.482 2.598-2.468 1.732-4.308 4.135-5.52 7.209-1.169 3.074-1.754 6.646-1.754 10.715 0 6.278 1.407 11.279 4.221 15.002 2.858 3.681 7.036 5.521 12.535 5.521Zm81.174 47.669c-3.984 0-7.772-.65-11.366-1.949-3.593-1.255-6.819-3.03-9.676-5.325-2.815-2.251-5.109-4.893-6.884-7.923l16.365-7.923c1.126 2.078 2.728 3.658 4.806 4.74 2.122 1.083 4.417 1.624 6.884 1.624 2.641 0 5.131-.455 7.469-1.364 2.338-.866 4.2-2.186 5.585-3.961 1.429-1.732 2.1-3.897 2.013-6.495v-20.392h2.209V61.275h15.456v74.945c0 1.732-.086 3.355-.26 4.871a27.607 27.607 0 0 1-.779 4.611c-1.126 4.286-3.225 7.815-6.299 10.586-3.031 2.771-6.755 4.827-11.171 6.169-4.416 1.386-9.2 2.079-14.352 2.079Zm-1.559-31.173c-6.451 0-12.101-1.624-16.951-4.871-4.849-3.247-8.637-7.664-11.365-13.249-2.684-5.585-4.026-11.885-4.026-18.899 0-7.143 1.364-13.486 4.091-19.028 2.771-5.585 6.646-9.98 11.625-13.184 4.979-3.204 10.824-4.806 17.535-4.806 6.668 0 12.274 1.624 16.821 4.871 4.546 3.247 7.988 7.663 10.326 13.249 2.338 5.585 3.507 11.885 3.507 18.898 0 7.014-1.191 13.314-3.572 18.899-2.338 5.585-5.845 10.002-10.521 13.249-4.676 3.247-10.499 4.871-17.47 4.871Zm2.857-15.717c3.94 0 7.079-.888 9.417-2.663 2.382-1.775 4.092-4.264 5.131-7.468 1.039-3.204 1.559-6.928 1.559-11.17 0-4.244-.52-7.967-1.559-11.17-1.039-3.205-2.706-5.694-5.001-7.47-2.251-1.775-5.217-2.662-8.897-2.662-3.94 0-7.187.974-9.742 2.922-2.511 1.905-4.373 4.481-5.585 7.729-1.212 3.203-1.818 6.754-1.818 10.65 0 3.94.584 7.534 1.753 10.781 1.169 3.204 2.966 5.758 5.39 7.664 2.425 1.905 5.542 2.857 9.352 2.857Z"/><path fill="url(#b)" d="M473.444 131.414v-93.52h57.151V55.56h-39.486v20.262h31.693v17.665h-31.693v37.927h-17.665Zm71.474 0V35.947h17.665v95.467h-17.665Zm69.997 1.949c-7.057 0-13.249-1.581-18.574-4.741-5.326-3.161-9.482-7.512-12.469-13.054-2.945-5.585-4.417-11.993-4.417-19.224 0-7.317 1.516-13.746 4.546-19.288 3.031-5.585 7.209-9.936 12.535-13.054 5.325-3.117 11.451-4.676 18.379-4.676 7.057 0 13.248 1.58 18.574 4.741 5.368 3.16 9.547 7.534 12.534 13.119 2.987 5.542 4.481 11.928 4.481 19.158 0 7.274-1.515 13.704-4.546 19.289-2.987 5.542-7.165 9.893-12.534 13.054-5.326 3.117-11.495 4.676-18.509 4.676Zm0-16.496c5.672 0 9.893-1.905 12.664-5.715 2.814-3.854 4.221-8.789 4.221-14.808 0-6.234-1.429-11.213-4.286-14.937-2.814-3.723-7.014-5.585-12.599-5.585-3.854 0-7.014.866-9.482 2.598-2.468 1.732-4.308 4.135-5.52 7.209-1.169 3.074-1.754 6.646-1.754 10.715 0 6.278 1.407 11.279 4.222 15.002 2.857 3.681 7.035 5.521 12.534 5.521Zm63.57 14.547-21.432-70.27 17.275.13 12.729 41.825 12.924-41.824h14.678l12.923 41.824 12.729-41.824h17.276l-21.432 70.139h-13.508l-15.327-45.72-15.327 45.72h-13.508Z"/><defs><linearGradient id="a" x1="19.398" x2="175.389" y1="112.317" y2="112.317" gradientUnits="userSpaceOnUse"><stop stop-color="#5EBCFF"/><stop offset="1" stop-color="#2E51FF"/></linearGradient><linearGradient id="b" x1="175.389" x2="760.389" y1="81.914" y2="81.914" gradientUnits="userSpaceOnUse"><stop stop-color="#5EBCFF"/><stop offset="1" stop-color="#2E51FF"/></linearGradient></defs></svg>