<svg xmlns="http://www.w3.org/2000/svg" width="42" height="42" fill="none"><path fill="#000" d="M5.362 13.143A17.5 17.5 0 0 1 21 3.5c4.716 0 8.678 1.734 11.708 4.559l-5.018 5.019c-1.815-1.734-4.12-2.618-6.69-2.618-4.559 0-8.418 3.08-9.791 7.215-.35 1.05-.55 2.17-.55 3.325 0 1.155.2 2.275.55 3.325C12.584 28.462 16.44 31.54 21 31.54c2.354 0 4.358-.621 5.925-1.671a8.05 8.05 0 0 0 3.494-5.282H21V17.82h16.481c.207 1.144.319 2.338.319 3.578 0 5.33-1.907 9.818-5.218 12.863C29.686 36.934 25.724 38.5 21 38.5A17.494 17.494 0 0 1 3.5 21c0-2.825.676-5.495 1.862-7.857Z"/></svg>