<svg xmlns="http://www.w3.org/2000/svg" width="176" height="164" fill="none"><path fill="#fff" d="m145.384 42.187 10.107-37.324C156.155 2.411 154.307 0 151.768 0H13.054A4.937 4.937 0 0 0 8.29 3.648L.246 33.404c-1.2 4.434 2.14 8.792 6.73 8.792l89.421-.006.33.003c3.891 0 6.72 3.695 5.704 7.452l-3.019 11.17h-9.004L86.05 74.373h50.661l8.673-32.186Z"/><path fill="#fff" d="M33.822 60.827c.178-.014.357-.022.539-.022l106.011.006-.005.016h31.163c2.539 0 4.386 2.411 3.723 4.863l-10.107 37.324-8.674 32.183h-.01l-6.588 24.36a5.782 5.782 0 0 1-5.58 4.271h-64.31c-4.418 0-7.63-4.196-6.477-8.458l7.324-27.093a8.997 8.997 0 0 1 8.686-6.648l29.659.003 3.017-11.163c1.011-3.742-1.792-7.423-5.66-7.452h-.045l-89.751.006c-.175 0-.347-.006-.518-.018h-1.893c-3.244 0-5.602-3.078-4.755-6.21l.19-.704a7.012 7.012 0 0 1 .247-1.86l8.044-29.756a4.937 4.937 0 0 1 4.763-3.648h1.007Z"/></svg>